<svg width="26" height="28" viewBox="0 0 26 28" fill="none" xmlns="http://www.w3.org/2000/svg">
<path d="M21.6208 4.75035C19.5594 2.61757 16.8314 1.29003 13.9111 0.99845C10.9908 0.706874 8.06284 1.4697 5.63604 3.15435C3.48755 4.66427 1.83821 6.80459 0.90603 9.2924C-0.0261495 11.7802 -0.197284 14.4984 0.415249 17.0877C1.0792 19.8963 2.62546 22.4055 4.81758 24.2317C5.90807 25.1244 7.13586 25.8264 8.45105 26.309C10.7054 27.1371 13.1452 27.286 15.4801 26.7381C17.8149 26.1901 19.9464 24.9684 21.6208 23.2184C23.989 20.7612 25.3164 17.4514 25.3164 14.0034C25.3164 10.5553 23.989 7.24552 21.6208 4.78835V4.75035ZM1.69255 16.6697C1.60846 16.306 1.54224 15.9382 1.49413 15.5677L9.39353 12.8824L11.2661 12.249L11.7497 13.275C9.38112 14.0604 3.51548 16.0617 1.69255 16.6697ZM10.2616 11.0837L7.7814 11.945L2.00257 13.921L1.43213 14.111V13.9717C1.43213 13.5664 1.43213 13.161 1.43213 12.7684L4.40835 11.8184L9.36872 10.121L10.1004 9.86769L10.6336 10.995L10.2616 11.0837ZM7.57059 9.17102L2.25059 10.9697L1.71735 11.1597C1.84934 10.616 2.01925 10.0826 2.22579 9.56369L8.42625 7.52435L8.97189 7.34702C9.14551 7.73969 9.33152 8.13235 9.51754 8.52502L7.57059 9.17102ZM4.78038 5.62435L7.707 4.64902L8.36425 6.04235L6.85133 6.52369L3.13105 7.79035C3.59745 7.00597 4.15088 6.27917 4.78038 5.62435ZM20.6908 22.2177C18.7365 24.2427 16.1159 25.4545 13.3367 25.6184C10.5575 25.7822 7.81778 24.8863 5.64844 23.1044C4.02303 21.7582 2.78817 19.9845 2.07697 17.9744C5.21441 16.9357 11.9977 14.605 12.8658 14.339C12.9479 14.316 13.024 14.2744 13.0884 14.2175C13.1528 14.1605 13.2038 14.0895 13.2378 14.0097C13.2835 13.9084 13.3071 13.7982 13.3071 13.6867C13.3071 13.5752 13.2835 13.465 13.2378 13.3637C11.9109 10.539 10.7576 7.80302 9.38112 4.97835C9.0835 4.37035 8.78588 3.71169 8.47586 3.17969C10.5292 2.31025 12.79 2.08689 14.9684 2.53824C17.1469 2.98958 19.1438 4.09507 20.7032 5.71302C22.8147 7.91076 23.9977 10.8671 23.9977 13.9464C23.9977 17.0256 22.8147 19.9819 20.7032 22.1797L20.6908 22.2177Z" fill="white"/>
</svg>
