<svg width="29" height="28" viewBox="0 0 29 28" fill="none" xmlns="http://www.w3.org/2000/svg">
<path d="M26.6433 17.1414C24.4871 23.2536 17.9516 26.8389 11.7672 25.2341C5.86689 23.6975 1.9055 17.9438 2.3568 11.7633C2.64095 7.95604 4.71357 4.42189 7.77236 2.27067C7.18735 1.8097 6.61905 1.3658 6.03403 0.90482C4.44614 5.6853 5.26516 11.0633 8.2738 15.0755C10.9816 18.6951 15.177 20.9146 19.6398 21.0682C22.732 21.1707 25.7908 20.2658 28.3649 18.5243C29.6352 17.6707 28.4484 15.5707 27.1614 16.4414C23.551 18.8829 18.8709 19.4121 14.9095 17.5341C11.5833 15.9633 9.04268 12.9755 8.0398 9.35603C7.33778 6.77799 7.45478 4.0975 8.29052 1.57067C8.6081 0.597503 7.38792 -0.39274 6.55219 0.20482C0.150461 4.71213 -2.00574 13.7097 2.07265 20.6414C5.90032 27.1463 14.0237 29.7755 20.8433 26.7536C24.6542 25.0633 27.5458 21.7511 28.9499 17.7902C29.4513 16.3219 27.1614 15.6902 26.6433 17.1414Z" fill="#FDFDFD"/>
</svg>
