<svg width="17" height="25" viewBox="0 0 17 25" fill="none" xmlns="http://www.w3.org/2000/svg">
  <path d="M0.826763 10.8387C0.826763 6.75561 4.13676 3.44562 8.21984 3.44562V3.44562C12.3029 3.44562 15.6129 6.75561 15.6129 10.8387V17.9776C15.6129 18.2821 15.7514 18.5701 15.9893 18.7602V18.7602C16.7293 19.3516 16.3111 20.5447 15.3639 20.5447H1.01232C0.0561154 20.5447 -0.345376 19.3241 0.424117 18.7564V18.7564C0.677322 18.5697 0.826763 18.2737 0.826763 17.9591V16.5827V10.8387Z" fill="#C4C4C4"/>
  <path d="M6.91519 2.03946C6.91519 1.31892 7.49931 0.734802 8.21985 0.734802V0.734802C8.94039 0.734802 9.52451 1.31892 9.52451 2.03946V3.1836C9.52451 3.90414 8.94039 4.48825 8.21985 4.48825V4.48825C7.49931 4.48825 6.91519 3.90414 6.91519 3.1836V2.03946Z" fill="#C4C4C4"/>
  <path d="M10.4445 22.0178C10.4445 22.3173 10.3841 22.6138 10.2668 22.8905C10.1496 23.1671 9.97771 23.4185 9.76104 23.6302C9.54437 23.842 9.28714 24.01 9.00405 24.1246C8.72095 24.2392 8.41753 24.2981 8.11111 24.2981C7.8047 24.2981 7.50128 24.2392 7.21818 24.1246C6.93509 24.01 6.67786 23.842 6.46119 23.6302C6.24452 23.4185 6.07265 23.1671 5.95539 22.8905C5.83812 22.6138 5.77777 22.3173 5.77777 22.0178L8.11111 22.0178H10.4445Z" fill="#C4C4C4"/>
</svg>
