<svg width="43" height="44" viewBox="0 0 43 44" fill="none" xmlns="http://www.w3.org/2000/svg">
<path d="M6.16667 41.1667H4C2.89543 41.1667 2 40.2712 2 39.1667V4C2 2.89543 2.89543 2 4 2L25.8333 2C26.9379 2 27.8333 2.89543 27.8333 4V4.5" stroke="#0085FF" stroke-width="2.5" stroke-linecap="round"/>
<path d="M14.5 11.3334V41C14.5 41.5523 14.9477 42 15.5 42H40.1667C40.719 42 41.1667 41.5523 41.1667 41V11.3334C41.1667 10.7811 40.719 10.3334 40.1667 10.3334H15.5C14.9477 10.3334 14.5 10.7811 14.5 11.3334Z" stroke="#0085FF" stroke-width="2.5" stroke-linecap="round"/>
<path d="M28.25 22V31.1667" stroke="#0085FF" stroke-width="2.5" stroke-linecap="round"/>
<path d="M32.8333 26.5834L23.6666 26.5834" stroke="#0085FF" stroke-width="2.5" stroke-linecap="round"/>
</svg>
