<svg width="18" height="20" viewBox="0 0 18 20" fill="none" xmlns="http://www.w3.org/2000/svg">
<path d="M15.5388 1.68682C15.0629 1.29657 14.5157 1.00714 13.929 0.835436C13.3423 0.663735 12.728 0.613212 12.122 0.686822C11.5138 0.756347 10.925 0.947559 10.3891 1.24954C9.85326 1.55152 9.38088 1.95836 8.99896 2.44682L1.78357 11.6668C1.02763 12.6503 0.680885 13.8981 0.81828 15.1405C0.955674 16.383 1.56617 17.5204 2.51784 18.3068C3.48191 19.0926 4.71161 19.4559 5.93747 19.3172C7.16333 19.1785 8.28537 18.549 9.0577 17.5668L16.2731 8.34682C17.0376 7.36309 17.3896 6.11011 17.252 4.86199C17.1144 3.61388 16.4984 2.47224 15.5388 1.68682ZM8.21574 16.8968C7.61984 17.654 6.75386 18.1384 5.80831 18.2434C4.86276 18.3484 3.91509 18.0655 3.17378 17.4568C2.43248 16.8482 1.95825 15.9636 1.85544 14.9978C1.75262 14.032 2.02963 13.064 2.62553 12.3068L5.72903 8.30682L11.2409 12.9768L8.21574 16.8968ZM15.4311 7.67682L11.985 12.0868L6.47309 7.41682L9.83113 3.11682C10.1244 2.74176 10.4872 2.42945 10.8988 2.1978C11.3104 1.96615 11.7627 1.81969 12.2297 1.76682C12.3634 1.75691 12.4975 1.75691 12.6311 1.76682C13.4443 1.7665 14.2326 2.05258 14.8633 2.57682C15.5962 3.17939 16.0668 4.05285 16.1731 5.00765C16.2794 5.96245 16.0128 6.92155 15.4311 7.67682Z" fill="#ffffff"/>
</svg>
