<?xml version="1.0" encoding="UTF-8"?>
<svg width="22px" height="23px" viewBox="0 0 22 23" xmlns="http://www.w3.org/2000/svg" xmlns:xlink="http://www.w3.org/1999/xlink" version="1.1">
 <!-- Generated by Pixelmator Pro 1.3.4 -->
 <path id="path" d="M21.787 3.314 C21.109 3.314 20.43 3.314 19.776 3.314 19.776 2.621 19.776 1.927 19.776 1.26 19.776 0.618 18.796 0.618 18.796 1.26 18.796 1.953 18.796 2.646 18.796 3.314 18.117 3.314 17.438 3.314 16.784 3.314 16.156 3.314 16.156 4.316 16.784 4.316 17.463 4.316 18.142 4.316 18.796 4.316 18.796 5.009 18.796 5.702 18.796 6.37 18.796 7.012 19.776 7.012 19.776 6.37 19.776 5.677 19.776 4.983 19.776 4.316 20.455 4.316 21.134 4.316 21.787 4.316 22.416 4.316 22.416 3.314 21.787 3.314 Z" fill="#ffffff" fill-opacity="1" stroke="none"/>
 <path id="path-1" d="M19.601 10.222 C19.601 13.817 19.601 17.412 19.601 21.008 18.469 21.008 17.363 21.008 16.232 21.008 11.556 21.008 6.88 21.008 2.204 21.008 2.204 17.592 2.204 6.91 2.204 2.519 6.1 2.519 9.997 2.519 13.894 2.519 15.05 2.519 15.05 0.67 13.894 0.67 9.67 0.67 5.472 0.67 1.248 0.67 0.595 0.67 0.419 1.235 0.394 1.748 0.343 3.315 0.394 16.668 0.394 21.932 0.394 22.343 0.62 22.625 0.896 22.728 1.022 22.779 1.148 22.831 1.299 22.831 2.732 22.831 4.139 22.831 5.572 22.831 10.55 22.831 15.503 22.831 20.481 22.831 20.707 22.831 20.883 22.754 21.009 22.651 21.26 22.523 21.386 22.291 21.386 21.958 21.386 18.054 21.386 14.151 21.386 10.222 21.386 9.041 19.601 9.041 19.601 10.222 Z" fill="#ffffff" fill-opacity="1" stroke="none"/>
</svg>
