<svg width="26" height="8" viewBox="0 0 26 8" fill="none" xmlns="http://www.w3.org/2000/svg">
<path d="M4.35848 6.23854C3.94531 6.23854 3.604 5.88991 3.604 5.46789V2.53212C3.604 2.1101 3.94531 1.76147 4.35848 1.76147C4.77164 1.76147 5.11295 2.1101 5.11295 2.53212V5.48624C5.11295 5.90826 4.77164 6.23854 4.35848 6.23854Z" fill="#0085FF"/>
<path d="M6.78353 6.23854C6.37036 6.23854 6.02905 5.88991 6.02905 5.46789V2.53212C6.02905 2.1101 6.37036 1.76147 6.78353 1.76147C7.19669 1.76147 7.538 2.1101 7.538 2.53212V5.48624C7.538 5.90826 7.19669 6.23854 6.78353 6.23854Z" fill="#0085FF"/>
<path d="M9.11885 6.23854C8.70569 6.23854 8.36438 5.88991 8.36438 5.46789V2.53212C8.36438 2.1101 8.70569 1.76147 9.11885 1.76147C9.53202 1.76147 9.87333 2.1101 9.87333 2.53212V5.48624C9.87333 5.90826 9.53202 6.23854 9.11885 6.23854Z" fill="#0085FF"/>
<path d="M11.6158 6.23854C11.2026 6.23854 10.8613 5.88991 10.8613 5.46789V2.53212C10.8613 2.1101 11.2026 1.76147 11.6158 1.76147C12.029 1.76147 12.3703 2.1101 12.3703 2.53212V5.48624C12.3703 5.90826 12.0469 6.23854 11.6158 6.23854Z" fill="#0085FF"/>
<path d="M13.951 6.23854C13.5378 6.23854 13.1965 5.88991 13.1965 5.46789V2.53212C13.1965 2.1101 13.5378 1.76147 13.951 1.76147C14.3642 1.76147 14.7055 2.1101 14.7055 2.53212V5.48624C14.7055 5.90826 14.3821 6.23854 13.951 6.23854Z" fill="#0085FF"/>
<path d="M25.6095 2.53217H24.9448V1.72483C24.9448 0.770703 24.1903 6.10352e-05 23.2562 6.10352e-05H2.14891C1.2148 0.0184096 0.460327 0.789052 0.460327 1.72483V6.27528C0.460327 7.22941 1.2148 8.00005 2.14891 8.00005H23.2742C24.2083 8.00005 24.9628 7.22941 24.9628 6.27528V5.06428H25.6095V2.53217ZM23.9748 6.27528C23.9748 6.67895 23.6514 6.99088 23.2742 6.99088H2.14891C1.75371 6.99088 1.44833 6.6606 1.44833 6.27528V1.72483C1.44833 1.32116 1.77168 1.00923 2.14891 1.00923H23.2742C23.6694 1.00923 23.9748 1.33951 23.9748 1.72483V6.27528Z" fill="#0085FF"/>
</svg>
