<svg width="24" height="22" viewBox="0 0 24 22" fill="none" xmlns="http://www.w3.org/2000/svg">
<path d="M23.6479 1.15501C23.6562 1.08185 23.6493 1.00773 23.6274 0.937542C23.6056 0.867354 23.5694 0.802704 23.5213 0.74787C23.4732 0.693037 23.4142 0.649271 23.3482 0.61947C23.2823 0.589669 23.2109 0.574513 23.1388 0.575005H5.35002C5.23778 0.569761 5.12729 0.604928 5.03783 0.674374C4.94837 0.74382 4.88562 0.843137 4.86051 0.955006C4.8272 1.02684 4.81045 1.10553 4.81156 1.18501V7.62501H0.895478C0.767946 7.62526 0.645344 7.67535 0.552821 7.76501C0.508483 7.81121 0.473545 7.86593 0.45002 7.926C0.426495 7.98608 0.414851 8.05031 0.415758 8.11501V20.785C0.415758 20.785 0.415758 20.845 0.415758 20.875C0.41015 20.947 0.419569 21.0194 0.443392 21.0873C0.467215 21.1553 0.504898 21.2174 0.553949 21.2694C0.603001 21.3213 0.662302 21.3621 0.727929 21.3889C0.793556 21.4158 0.864013 21.4281 0.934639 21.425H10.0297C10.139 21.4272 10.2458 21.392 10.3332 21.325C10.4044 21.2773 10.4624 21.2119 10.5018 21.1349C10.5412 21.0579 10.5607 20.9719 10.5584 20.885V14.995H23.1878C23.3111 14.998 23.4307 14.9513 23.5207 14.865C23.6017 14.7671 23.6468 14.6433 23.6479 14.515V1.30501C23.6582 1.25556 23.6582 1.20445 23.6479 1.15501ZM9.44233 20.305H1.41436V8.715H9.44233V20.305ZM22.6004 13.905H10.5095V8.30501C10.5149 8.27191 10.5149 8.2381 10.5095 8.20501C10.5164 8.1331 10.5083 8.06051 10.4858 7.99203C10.4632 7.92356 10.4266 7.86077 10.3785 7.80782C10.3303 7.75488 10.2717 7.71298 10.2066 7.68491C10.1414 7.65684 10.0711 7.64324 10.0004 7.64501H5.8787V1.64501H22.6004V13.905Z" fill="#ffffff"/>
<path d="M3.40193 19.475H7.22012C7.34919 19.4571 7.46754 19.392 7.55323 19.2918C7.63892 19.1916 7.68614 19.063 7.68614 18.93C7.68614 18.7969 7.63892 18.6684 7.55323 18.5682C7.46754 18.468 7.34919 18.4029 7.22012 18.385H3.40193C3.27286 18.4029 3.15451 18.468 3.06882 18.5682C2.98313 18.6684 2.93591 18.7969 2.93591 18.93C2.93591 19.063 2.98313 19.1916 3.06882 19.2918C3.15451 19.392 3.27286 19.4571 3.40193 19.475Z" fill="#ffffff"/>
<path d="M21.6215 11.305V3.58498C21.6039 3.45314 21.5402 3.33226 21.4421 3.24473C21.344 3.15721 21.2181 3.10898 21.0879 3.10898C20.9576 3.10898 20.8318 3.15721 20.7337 3.24473C20.6356 3.33226 20.5718 3.45314 20.5543 3.58498V11.305C20.5718 11.4368 20.6356 11.5577 20.7337 11.6452C20.8318 11.7328 20.9576 11.781 21.0879 11.781C21.2181 11.781 21.344 11.7328 21.4421 11.6452C21.5402 11.5577 21.6039 11.4368 21.6215 11.305Z" fill="#ffffff"/>
</svg>
