<svg width="22" height="28" viewBox="0 0 22 28" fill="none" xmlns="http://www.w3.org/2000/svg">
<path d="M19.4405 7.79191C18.9957 5.79407 18.0174 3.96128 16.6144 2.49709C15.8942 1.73162 15.0302 1.12262 14.074 0.706613C13.1178 0.290607 12.0892 0.0761719 11.0499 0.0761719C10.0106 0.0761719 8.98197 0.290607 8.02579 0.706613C7.0696 1.12262 6.20554 1.73162 5.48543 2.49709C4.07872 3.94529 3.09062 5.76198 2.62998 7.74703C2.09899 8.10065 1.66284 8.58408 1.3611 9.15348C1.05936 9.72288 0.901581 10.3602 0.902073 11.0077V23.9605C0.892372 24.475 0.982713 24.9863 1.16787 25.4648C1.35302 25.9433 1.6293 26.3795 1.9807 26.7482C2.3321 27.1169 2.75163 27.4107 3.21499 27.6125C3.67835 27.8144 4.17632 27.9203 4.68005 27.9242H17.3612C17.8624 27.9242 18.3587 27.8231 18.8215 27.6267C19.2844 27.4304 19.7048 27.1426 20.0585 26.7799C20.4122 26.4172 20.6924 25.9867 20.8828 25.5132C21.0733 25.0396 21.1703 24.5323 21.1684 24.0204V11.0526C21.1689 10.4051 21.0111 9.76775 20.7094 9.19835C20.4076 8.62895 19.9715 8.14552 19.4405 7.79191ZM6.59832 3.72357C7.16677 3.11916 7.84891 2.63828 8.6038 2.30979C9.35869 1.9813 10.1708 1.81197 10.9913 1.81197C11.8119 1.81197 12.6239 1.9813 13.3788 2.30979C14.1337 2.63828 14.8159 3.11916 15.3843 3.72357C16.3304 4.69466 17.051 5.87027 17.493 7.16371H4.48969C4.93168 5.87027 5.65227 4.69466 6.59832 3.72357ZM19.543 24.0054C19.543 24.5965 19.3131 25.1633 18.904 25.5813C18.4948 25.9992 17.9398 26.234 17.3612 26.234H4.68005C4.10139 26.234 3.54642 25.9992 3.13724 25.5813C2.72807 25.1633 2.49819 24.5965 2.49819 24.0054V11.0526C2.49819 10.7599 2.55463 10.4701 2.66428 10.1997C2.77393 9.92931 2.93464 9.68363 3.13724 9.47669C3.33985 9.26974 3.58037 9.10559 3.84509 8.99359C4.1098 8.88159 4.39352 8.82395 4.68005 8.82395H17.3612C17.6477 8.82395 17.9314 8.88159 18.1961 8.99359C18.4608 9.10559 18.7014 9.26974 18.904 9.47669C19.1066 9.68363 19.2673 9.92931 19.3769 10.1997C19.4866 10.4701 19.543 10.7599 19.543 11.0526V24.0054Z" fill="#0085FF"/>
</svg>
