<svg width="26" height="26" viewBox="0 0 26 26" fill="none" xmlns="http://www.w3.org/2000/svg">
<path d="M3.5 24.5H3C1.89543 24.5 1 23.6046 1 22.5V3C1 1.89543 1.89543 1 3 1L15 1C15.8284 1 16.5 1.67157 16.5 2.5V2.5" stroke="#0085FF" stroke-width="2" stroke-linecap="round"/>
<path d="M8.5 7V24C8.5 24.5523 8.94772 25 9.5 25H23.5C24.0523 25 24.5 24.5523 24.5 24V7C24.5 6.44772 24.0523 6 23.5 6H9.5C8.94772 6 8.5 6.44771 8.5 7Z" stroke="#0085FF" stroke-width="2" stroke-linecap="round"/>
<path d="M16.75 13V18.5" stroke="#0085FF" stroke-width="2" stroke-linecap="round"/>
<path d="M19.5 15.75L14 15.75" stroke="#0085FF" stroke-width="2" stroke-linecap="round"/>
</svg>
