<svg width="19" height="25" viewBox="0 0 19 25" fill="none" xmlns="http://www.w3.org/2000/svg">
<path d="M16.706 7.26935C16.3148 5.51257 15.4546 3.90093 14.2208 2.6134C13.5876 1.9403 12.8278 1.40477 11.987 1.03896C11.1461 0.673152 10.2417 0.484591 9.32774 0.484591C8.41383 0.484591 7.50934 0.673152 6.66853 1.03896C5.82772 1.40477 5.06791 1.9403 4.43469 2.6134C3.19771 3.88686 2.32884 5.48435 1.92378 7.22989C1.45686 7.54083 1.07333 7.96594 0.808002 8.46663C0.542669 8.96733 0.403926 9.52777 0.404359 10.0971V21.4871C0.395828 21.9394 0.475269 22.389 0.638081 22.8098C0.800893 23.2306 1.04384 23.6142 1.35284 23.9384C1.66184 24.2626 2.03075 24.5209 2.4382 24.6984C2.84565 24.8759 3.28354 24.9691 3.72648 24.9724H14.8775C15.3182 24.9725 15.7546 24.8836 16.1617 24.7109C16.5687 24.5382 16.9383 24.2852 17.2494 23.9662C17.5604 23.6473 17.8067 23.2688 17.9742 22.8523C18.1417 22.4359 18.2271 21.9899 18.2254 21.5397V10.1366C18.2258 9.56723 18.0871 9.00679 17.8217 8.50609C17.5564 8.0054 17.1729 7.58029 16.706 7.26935ZM5.4133 3.6919C5.91316 3.16041 6.51299 2.73755 7.1768 2.4487C7.8406 2.15984 8.5547 2.01095 9.27624 2.01095C9.99777 2.01095 10.7119 2.15984 11.3757 2.4487C12.0395 2.73755 12.6393 3.16041 13.1392 3.6919C13.9711 4.54582 14.6047 5.57958 14.9934 6.71695H3.55909C3.94776 5.57958 4.5814 4.54582 5.4133 3.6919ZM16.7961 21.5265C16.7961 22.0463 16.594 22.5447 16.2341 22.9122C15.8743 23.2798 15.3863 23.4862 14.8775 23.4862H3.72648C3.21764 23.4862 2.72964 23.2798 2.36983 22.9122C2.01003 22.5447 1.80789 22.0463 1.80789 21.5265V10.1366C1.80789 9.87921 1.85752 9.62438 1.95394 9.38662C2.05035 9.14885 2.19168 8.93282 2.36983 8.75084C2.54799 8.56887 2.7595 8.42452 2.99227 8.32603C3.22504 8.22755 3.47453 8.17686 3.72648 8.17686H14.8775C15.1294 8.17686 15.3789 8.22755 15.6117 8.32603C15.8445 8.42452 16.056 8.56887 16.2341 8.75084C16.4123 8.93282 16.5536 9.14885 16.65 9.38662C16.7465 9.62438 16.7961 9.87921 16.7961 10.1366V21.5265Z" fill="white"/>
<path d="M10.4859 18.0146C10.4859 17.6937 10.3611 17.3859 10.1389 17.159C9.91675 16.9321 9.61544 16.8046 9.30125 16.8046C8.98707 16.8046 8.68575 16.9321 8.46359 17.159C8.24143 17.3859 8.11662 17.6937 8.11662 18.0146C8.11723 18.3122 8.22757 18.5986 8.42565 18.8169L8.10374 21.1449H10.4988L10.1769 18.8169C10.3749 18.5986 10.4853 18.3122 10.4859 18.0146Z" fill="white"/>
</svg>
