<svg width="14" height="20" viewBox="0 0 14 20" fill="none" xmlns="http://www.w3.org/2000/svg">
<path d="M12.6548 5.84928C12.3574 4.51357 11.7033 3.28821 10.7653 2.30928C10.2838 1.7975 9.70611 1.39034 9.06682 1.1122C8.42754 0.834071 7.73984 0.690704 7.04498 0.690704C6.35011 0.690704 5.66241 0.834071 5.02312 1.1122C4.38384 1.39034 3.80614 1.7975 3.32469 2.30928C2.3842 3.27752 1.72358 4.49211 1.4156 5.81928C1.0606 6.0557 0.768995 6.37891 0.567257 6.7596C0.36552 7.14029 0.260031 7.5664 0.26036 7.99928V16.6593C0.253874 17.0032 0.314274 17.3451 0.438063 17.665C0.561852 17.9849 0.746568 18.2766 0.981507 18.5231C1.21645 18.7695 1.49694 18.966 1.80673 19.1009C2.11652 19.2359 2.44945 19.3067 2.78623 19.3093H11.2646C11.5997 19.3093 11.9315 19.2417 12.2409 19.1104C12.5504 18.9791 12.8314 18.7867 13.0679 18.5442C13.3044 18.3017 13.4917 18.0139 13.6191 17.6973C13.7464 17.3807 13.8113 17.0416 13.81 16.6993V8.02928C13.8103 7.5964 13.7048 7.17029 13.5031 6.7896C13.3014 6.40891 13.0098 6.0857 12.6548 5.84928ZM4.06875 3.12928C4.4488 2.72518 4.90487 2.40367 5.40957 2.18405C5.91428 1.96443 6.45722 1.85122 7.00581 1.85122C7.55441 1.85122 8.09735 1.96443 8.60206 2.18405C9.10676 2.40367 9.56282 2.72518 9.94288 3.12928C10.5754 3.77853 11.0572 4.56452 11.3527 5.42928H2.65896C2.95447 4.56452 3.43624 3.77853 4.06875 3.12928ZM12.7233 16.6893C12.7233 17.0845 12.5696 17.4634 12.296 17.7429C12.0225 18.0223 11.6514 18.1793 11.2646 18.1793H2.78623C2.39935 18.1793 2.02831 18.0223 1.75475 17.7429C1.48118 17.4634 1.32749 17.0845 1.32749 16.6893V8.02928C1.32749 7.83361 1.36522 7.63986 1.43853 7.45908C1.51184 7.27831 1.61929 7.11405 1.75475 6.97569C1.8902 6.83733 2.05101 6.72758 2.228 6.6527C2.40498 6.57782 2.59467 6.53928 2.78623 6.53928H11.2646C11.4561 6.53928 11.6458 6.57782 11.8228 6.6527C11.9998 6.72758 12.1606 6.83733 12.296 6.97569C12.4315 7.11405 12.5389 7.27831 12.6123 7.45908C12.6856 7.63986 12.7233 7.83361 12.7233 8.02928V16.6893Z" fill="#9497B2"/>
</svg>
