<svg width="28" height="28" viewBox="0 0 28 28" fill="none" xmlns="http://www.w3.org/2000/svg">
<path d="M13.753 27.749C11.12 27.7516 8.54556 26.956 6.35563 25.4629C4.16571 23.9699 2.45886 21.8465 1.45128 19.3619C0.443698 16.8772 0.180714 14.143 0.695634 11.5056C1.21055 8.86811 2.48021 6.44609 4.3438 4.54626C6.20738 2.64643 8.58105 1.35427 11.1642 0.833429C13.7473 0.312592 16.4236 0.586516 18.8542 1.62051C21.2848 2.6545 23.3602 4.40203 24.8177 6.64178C26.2752 8.88152 27.0491 11.5127 27.0415 14.2021C27.0313 17.7963 25.6271 21.2399 23.1365 23.779C20.6459 26.318 17.2718 27.7456 13.753 27.749ZM13.753 1.90459C11.3774 1.902 9.05447 2.61882 7.0777 3.96445C5.10092 5.31008 3.55907 7.22412 2.64706 9.46461C1.73504 11.7051 1.49379 14.1715 1.95381 16.552C2.41382 18.9325 3.55445 21.1203 5.23151 22.8388C6.90857 24.5573 9.04678 25.7294 11.3759 26.207C13.7049 26.6845 16.1204 26.446 18.3168 25.5216C20.5132 24.5973 22.392 23.0285 23.7158 21.0137C25.0395 18.9989 25.7488 16.6285 25.7538 14.2021C25.7504 10.9509 24.4854 7.83368 22.2359 5.53352C19.9864 3.23336 16.9359 1.93786 13.753 1.9309V1.90459Z" fill="white"/>
<path d="M18.4171 8.68996C16.6015 10.8601 14.773 14.1614 12.9575 16.3183C11.2964 14.8058 14.2451 17.6336 9.27479 13.2801C8.64385 12.7409 7.75537 13.6484 8.37344 14.2008C10.189 15.8712 12.7257 18.0018 12.8287 18.0282C12.9404 18.0878 13.0693 18.1047 13.1921 18.0757C13.3149 18.0468 13.4235 17.9739 13.4983 17.8703L19.3184 9.61063C19.9107 8.9004 18.945 8.05865 18.4171 8.68996Z" fill="white"/>
</svg>
