<svg width="22" height="21" viewBox="0 0 22 21" fill="none" xmlns="http://www.w3.org/2000/svg">
<path d="M11.0182 20.6601C9.0163 20.6621 7.05887 20.0572 5.39383 18.922C3.72879 17.7868 2.43104 16.1724 1.66496 14.2832C0.89888 12.3941 0.698928 10.3152 1.09043 8.30991C1.48193 6.30462 2.44728 4.46311 3.8642 3.01863C5.28112 1.57416 7.08586 0.591699 9.04985 0.195697C11.0138 -0.200305 13.0487 0.00796407 14.8967 0.794126C16.7447 1.58029 18.3227 2.90897 19.4309 4.61189C20.5391 6.31481 21.1275 8.31535 21.1217 10.3601C21.1139 13.0929 20.0463 15.7111 18.1527 17.6416C16.259 19.5721 13.6936 20.6575 11.0182 20.6601ZM11.0182 1.01012C9.21201 1.00815 7.44581 1.55316 5.94283 2.57627C4.43985 3.59938 3.26756 5.05465 2.57413 6.75815C1.88071 8.46164 1.69729 10.3369 2.04704 12.1468C2.3968 13.9568 3.26404 15.6202 4.53914 16.9268C5.81424 18.2334 7.43996 19.1246 9.21081 19.4877C10.9817 19.8507 12.8181 19.6694 14.4881 18.9666C16.1581 18.2638 17.5866 17.0711 18.5931 15.5392C19.5995 14.0073 20.1388 12.205 20.1427 10.3601C20.1401 7.8882 19.1782 5.51812 17.4679 3.76927C15.7576 2.02041 13.4382 1.03541 11.0182 1.03012V1.01012Z" fill="#0085FF"/>
<path d="M10.6043 4C10.5222 4.00317 10.4415 4.02537 10.3667 4.06532C10.292 4.10528 10.2246 4.16221 10.1685 4.23286C10.1124 4.30351 10.0687 4.3865 10.0399 4.47708C10.011 4.56765 9.99758 4.66404 10.0004 4.76073L10.2294 11.092C10.2294 11.3328 10.3106 11.5638 10.4551 11.7341C10.5996 11.9043 10.7956 12 11 12C11.2043 12 11.4003 11.9043 11.5448 11.7341C11.6894 11.5638 11.7705 11.3328 11.7705 11.092L11.9996 4.68712C12.0024 4.59806 11.9899 4.50926 11.9629 4.42602C11.9359 4.34278 11.895 4.26681 11.8425 4.20266C11.79 4.13851 11.727 4.0875 11.6574 4.05268C11.5878 4.01785 11.5129 3.99994 11.4373 4H10.6043Z" fill="#0085FF"/>
<path d="M11 16C11.5523 16 12 15.5523 12 15C12 14.4477 11.5523 14 11 14C10.4477 14 10 14.4477 10 15C10 15.5523 10.4477 16 11 16Z" fill="#0085FF"/>
</svg>
